<svg width="253" height="62" viewBox="0 0 253 62" fill="none" xmlns="http://www.w3.org/2000/svg">
<path fill-rule="evenodd" clip-rule="evenodd" d="M30.9207 4.92015V0.892086C30.9207 0.399401 31.3152 0 31.8018 0C32.2885 0 32.683 0.399401 32.683 0.892086V4.92015C37.6643 5.07494 42.3203 6.5376 46.3274 8.98036V12.9702C46.1521 12.9867 45.9773 13.0129 45.8036 13.049C45.4889 13.1143 45.1832 13.2107 44.8906 13.336C44.8456 13.3059 44.8005 13.276 44.7553 13.2463C44.7806 13.2848 44.8059 13.3233 44.831 13.362C44.1938 13.645 43.6206 14.0655 43.1537 14.5987C43.0061 14.7672 42.8708 14.9451 42.7485 15.1309C41.934 14.8301 41.0991 14.5651 40.2484 14.3358C40.8699 15.9758 41.3342 17.7486 41.6481 19.63C41.8763 19.6797 42.1035 19.7313 42.3295 19.7847C42.428 20.0166 42.5446 20.2415 42.6786 20.4572C43.2361 21.3544 44.0658 22.0443 45.0434 22.4236C46.021 22.8029 47.0937 22.8512 48.1006 22.5611C48.453 22.4596 48.7906 22.3186 49.1079 22.142C50.3828 22.76 51.5765 23.4635 52.6599 24.254C52.4133 23.1058 52.0807 21.9792 51.6586 20.8838C51.4489 20.6569 51.2334 20.4349 51.0124 20.218C51.1295 20.0035 51.2303 19.7808 51.3142 19.5518C51.7889 20.0257 52.3582 20.3981 52.9886 20.6414C53.9674 21.0192 55.0408 21.0653 56.0477 20.7729C56.3443 20.6867 56.6305 20.5726 56.9027 20.4328C58.8827 24.3368 60 28.7629 60 33.4532C60 49.2192 47.3753 62 31.8018 62C19.6535 62 9.29951 54.2228 5.33275 43.3182L7.61339 43.7208C8.71181 43.9148 9.57196 44.7855 9.76351 45.8975L10.4657 49.9738C10.8737 52.3426 14.1199 52.433 14.7445 50.2449C15.8286 51.3734 17.0211 52.3947 18.3048 53.2915C18.369 53.1064 18.4427 52.9246 18.5258 52.7463C18.5729 52.6454 18.6227 52.546 18.6752 52.4483C17.3593 51.2086 16.1567 49.8485 15.0779 48.396L15.5041 45.922C16.7222 47.771 18.1413 49.4857 19.7374 51.009C20.1034 50.6304 20.5155 50.2855 20.9631 49.9725C19.659 48.0856 18.5549 46.0696 17.6503 43.9758C16.9214 44.3566 16.2774 44.7678 15.726 45.2058C16.0883 44.4364 16.8007 43.8723 17.6584 43.7208L21.6849 43.01C23.1702 42.7478 23.7486 41.3279 23.4202 40.1639C23.4278 40.1624 23.4353 40.1608 23.4429 40.1592C22.7129 37.1842 22.1898 34.2853 21.8819 31.5018C19.9686 31.875 18.1686 32.3649 16.5456 32.9709C16.727 34.6049 17.0218 36.24 17.4295 37.854C16.4419 37.587 15.6863 36.7618 15.5083 35.7283L14.8061 31.6521C14.7675 31.428 14.7036 31.2243 14.6188 31.0411C14.6082 30.8434 14.5991 30.6459 14.5917 30.4486C14.5113 28.3152 14.6183 26.1947 14.9155 24.1371C13.2814 24.9985 11.8356 26.0025 10.627 27.1454C10.4907 28.5156 10.4677 29.905 10.5524 31.2984C10.5162 31.4101 10.4871 31.5279 10.4657 31.6521L9.76351 35.7283C9.57196 36.8403 8.71181 37.7111 7.61339 37.905L4.04903 38.5343C3.75643 36.8854 3.60369 35.1874 3.60369 33.4532C3.60369 17.9858 15.755 5.39143 30.9207 4.92015ZM32.683 52.6645C33.2214 52.7033 33.7393 52.777 34.2286 52.8813C34.7407 51.6623 35.2218 50.4475 35.6717 49.2394C34.7 49.1108 33.6961 49.0334 32.683 49.0098V52.6645ZM32.683 47.2252C33.8935 47.2517 35.1091 47.3514 36.2907 47.5249C37.0023 45.4904 37.6235 43.4784 38.1526 41.5008C36.3881 41.2497 34.5423 41.1133 32.683 41.092V47.2252ZM32.683 39.3077V30.6187C35.2034 30.6653 37.7115 30.8786 40.0991 31.2546C39.8112 33.9785 39.308 36.8279 38.596 39.7628C36.6772 39.4797 34.6793 39.3297 32.683 39.3077ZM32.683 20.4109V28.8343C35.2429 28.8801 37.8038 29.0933 40.2579 29.4741C40.3296 28.4823 40.3713 27.5092 40.3828 26.5566C40.4056 24.654 40.308 22.8423 40.0895 21.1345C37.7034 20.6906 35.2022 20.4478 32.683 20.4109ZM32.683 18.6265C35.0846 18.6605 37.4816 18.8749 39.7951 19.2703C39.4207 17.2948 38.8683 15.4792 38.1372 13.8465C36.3554 13.4984 34.524 13.3 32.683 13.2528V18.6265ZM32.683 11.4682V9.38312C33.647 9.41865 34.5964 9.51225 35.5279 9.66056C36.1047 10.3355 36.63 11.0694 37.1038 11.8587C35.6408 11.6344 34.1603 11.5046 32.683 11.4682ZM42.5263 13.1655C41.4898 12.8172 40.4286 12.5228 39.3515 12.2816C38.9958 11.5693 38.6048 10.8884 38.1779 10.2416C39.0457 10.4854 39.8936 10.7777 40.7186 11.1155C41.3681 11.7494 41.9708 12.4346 42.5263 13.1655ZM54.9589 29.0008C55.0661 29.1519 55.1693 29.3047 55.2685 29.4594C55.4826 30.7584 55.594 32.0927 55.594 33.4532C55.594 34.3072 55.5501 35.1508 55.4645 35.9819C55.1473 35.6332 54.8024 35.2987 54.4326 34.9781C54.5211 34.5134 54.5988 34.0474 54.6655 33.5809C54.8829 32.0586 54.9834 30.5257 54.9589 29.0008ZM53.0717 26.8789C51.8559 25.7631 50.39 24.7804 48.7238 23.9377C49.0692 26.127 49.1973 28.3919 49.1114 30.6716C49.0971 31.0507 49.0769 31.4306 49.0508 31.8112C50.4315 32.3776 51.7156 33.0342 52.8518 33.7853C52.8762 33.6321 52.8993 33.4789 52.9212 33.3256C53.2294 31.1679 53.2865 29.0002 53.0717 26.8789ZM30.9207 11.4691C29.4247 11.5075 27.9302 11.642 26.4592 11.8733C26.9147 11.0869 27.4199 10.3536 27.9749 9.67686C28.9386 9.51909 29.9218 9.41994 30.9207 9.38312V11.4691ZM24.2317 12.3024C24.5765 11.5892 24.9557 10.9067 25.3703 10.2573C24.4476 10.5189 23.5475 10.8355 22.6738 11.2033C22.0543 11.8383 21.4795 12.5214 20.9498 13.2473C22.0158 12.8735 23.1133 12.5587 24.2317 12.3024ZM18.0934 14.4296C18.3088 14.0448 18.5341 13.6675 18.7695 13.2985C17.6433 14.0463 16.5836 14.8882 15.6013 15.8132C16.397 15.3076 17.23 14.8465 18.0934 14.4296ZM11.9285 21.4146C13.2499 19.7556 14.8955 18.3418 16.7727 17.1799C16.1529 18.6988 15.6647 20.3008 15.3069 21.958C13.764 22.6751 12.3273 23.5143 11.0427 24.4794C11.2663 23.4377 11.5607 22.4137 11.9285 21.4146ZM16.8472 23.2214C16.4261 25.5117 16.2601 27.9218 16.3528 30.3805C16.3622 30.6308 16.3744 30.8813 16.3892 31.132C18.0346 30.5489 19.8275 30.0783 21.7129 29.7181C21.623 28.5745 21.5712 27.4526 21.558 26.3553C21.5384 24.7185 21.605 23.1304 21.7613 21.6025C20.0505 22.0243 18.4148 22.5575 16.8931 23.2019L16.8472 23.2214ZM22.0055 19.712C22.3047 17.8103 22.7551 16.0168 23.364 14.3562C21.971 14.7402 20.6289 15.2225 19.3594 15.8014C18.4939 17.4387 17.8119 19.2245 17.3158 21.1142C18.8058 20.5502 20.3788 20.0833 22.0055 19.712ZM23.5777 21.2017C23.3844 22.8242 23.2987 24.5384 23.3203 26.3336C23.3324 27.3401 23.3783 28.3696 23.4577 29.4198C25.8637 29.0553 28.3866 28.8599 30.9207 28.8292V20.4187C28.4245 20.4773 25.9453 20.7385 23.5777 21.2017ZM40.3383 40.0611C41.0415 37.1405 41.5444 34.295 41.839 31.5618C43.7367 31.9344 45.5362 32.415 47.1784 33.0013C46.8775 35.8508 46.2317 38.7061 45.2437 41.45C43.7446 40.8656 42.0872 40.404 40.3383 40.0611ZM46.862 42.161C47.8661 39.3965 48.5372 36.5294 48.8766 33.6705C50.2585 34.2709 51.4688 34.9471 52.482 35.6919C51.8449 38.4804 50.7978 41.2009 49.3943 43.7264C48.6387 43.1384 47.7843 42.6174 46.862 42.161ZM50.7294 44.9534C52.1636 42.4455 53.2617 39.753 53.9795 36.9909C54.4158 37.4446 54.7873 37.9181 55.0897 38.4103C54.4879 41.3222 53.3667 44.041 51.8286 46.4626C51.5266 45.9259 51.1567 45.4231 50.7294 44.9534ZM39.9002 41.7927C39.3726 43.7827 38.7544 45.8036 38.0482 47.8439C39.2703 48.1104 40.4306 48.4624 41.4808 48.9007C42.712 47.0799 43.7514 45.1332 44.598 43.1102C43.1793 42.5581 41.5911 42.1188 39.9002 41.7927ZM46.2118 43.825C45.3569 45.8658 44.3142 47.8361 43.0831 49.6892C43.17 49.7397 43.2558 49.7909 43.3402 49.8429C43.6669 50.0441 43.9787 50.2596 44.2714 50.4898C45.8664 48.9207 47.2779 47.1586 48.4808 45.2631C47.8376 44.7411 47.0782 44.2613 46.2118 43.825ZM49.7573 46.5454C48.5382 48.4187 47.1237 50.1669 45.5344 51.7367C45.7667 52.0327 45.9698 52.346 46.1388 52.6771C47.8376 51.3766 49.3586 49.8506 50.6583 48.1432C50.4525 47.5808 50.1502 47.0479 49.7573 46.5454ZM25.631 41.5764C27.33 41.3143 29.114 41.1561 30.9207 41.1062V47.2384C29.7658 47.2813 28.6171 47.3921 27.5082 47.5746C26.7927 45.5495 26.1663 43.5462 25.631 41.5764ZM35.9211 53.4108C36.4624 52.1155 36.9699 50.8237 37.4431 49.5383C38.5049 49.7582 39.5051 50.0435 40.4088 50.39C39.4076 51.6973 38.2991 52.9264 37.0839 54.0564C36.748 53.8157 36.3571 53.5987 35.9211 53.4108ZM39.3389 54.3348L39.3702 54.3027L39.3603 54.3219L39.3389 54.3348ZM39.7356 56.1679C41.3421 55.2458 42.8447 54.1626 44.2318 52.9484C44.4156 53.1971 44.5633 53.4524 44.6746 53.7131C43.1403 54.7143 41.4849 55.5417 39.7356 56.1679ZM26.372 49.618C25.3617 49.8563 24.4207 50.1632 23.583 50.538C24.5344 51.7415 25.5788 52.8753 26.7157 53.9227C27.0489 53.7062 27.4287 53.5112 27.8467 53.3424C27.3238 52.0969 26.8321 50.8546 26.372 49.618ZM22.0129 51.4069C21.6539 51.654 21.3358 51.9163 21.06 52.1928C22.4217 53.3345 23.8942 54.3419 25.4649 55.185C24.2045 54.0174 23.054 52.751 22.0129 51.4069ZM20.0504 53.6651C19.9685 53.8628 19.9018 54.0695 19.8522 54.2858C20.8965 54.9011 21.9913 55.4381 23.1287 55.8891C22.0514 55.2179 21.0241 54.4734 20.0504 53.6651ZM30.9207 49.0238C29.9686 49.0613 29.0321 49.1476 28.1309 49.2822C28.5752 50.4643 29.0494 51.6527 29.5531 52.845C29.9894 52.7597 30.4471 52.6986 30.9207 52.6645V49.0238Z" fill="#FFE7DD"/>
<path d="M4.70988 41.3972C4.60446 41.028 4.50621 40.6558 4.41527 40.2807L7.91616 39.6627C8.23407 39.6065 8.54001 39.5164 8.83021 39.396C8.81302 39.4504 8.79659 39.5049 8.78093 39.5596C9.07369 40.6939 9.44608 41.7956 9.89168 42.8582C9.32931 42.4079 8.65509 42.0937 7.91616 41.9632L4.70988 41.3972Z" fill="#FFE7DD"/>
<path d="M11.6023 46.1864L12.2019 49.6673C12.2867 50.1599 12.9851 50.1599 13.07 49.6673L13.7721 45.591C13.8694 45.0265 14.07 44.4993 14.3537 44.03C13.0368 41.6769 12.0299 39.1529 11.3763 36.5611C11.1409 37.3492 10.6981 38.0435 10.1112 38.5798C10.8343 40.9278 11.8321 43.2104 13.0767 45.3551C13.0356 45.4077 12.9953 45.4607 12.9558 45.5142C12.6123 45.9786 12.3305 46.4704 12.1181 46.9875C11.9411 46.7242 11.7691 46.4571 11.6023 46.1864Z" fill="#FFE7DD"/>
<path d="M11.5631 35.6667C12.1316 35.2089 12.7744 34.778 13.4863 34.3753L13.1674 32.5244C12.7604 32.7384 12.3667 32.9628 11.9884 33.198L11.5631 35.6667Z" fill="#FFE7DD"/>
<path d="M15.9514 39.1558C16.224 40.1374 16.5368 41.111 16.89 42.0719C17.042 42.0275 17.1973 41.9911 17.3557 41.9632L21.3821 41.2523C21.7281 41.1913 21.828 40.8162 21.6821 40.5737C20.5919 40.8624 19.5554 41.2006 18.5917 41.5882C18.3681 40.9877 18.161 40.3817 17.9704 39.7712L17.3557 39.6627C16.8526 39.5739 16.3796 39.3999 15.9514 39.1558Z" fill="#FFE7DD"/>
<path d="M48.0898 15.0314V10.1476C48.6958 10.5825 49.2842 11.041 49.8536 11.5218V17.4059C49.8627 17.5605 49.8627 17.7155 49.8536 17.8701C49.851 18.2562 49.7775 18.6358 49.6395 18.9905C48.7461 18.2621 47.7842 17.6022 46.7667 17.0111C47.2703 18.1898 47.6928 19.421 48.0352 20.6913C47.9007 20.7524 47.7614 20.8038 47.6183 20.845C47.1792 20.9715 46.7204 20.9969 46.275 20.9225C45.7847 19.1669 45.1315 17.5053 44.3172 15.9744C44.3663 15.9085 44.4181 15.8443 44.4725 15.7822C44.9141 15.2779 45.5053 14.9321 46.1575 14.7968C46.214 14.7851 46.2706 14.775 46.3274 14.7665L46.355 14.7625C46.7704 14.9732 47.1792 15.1942 47.5805 15.4253C47.3169 15.1888 47.0481 14.958 46.7743 14.7333C47.2267 14.7331 47.6761 14.8338 48.0898 15.0314Z" fill="#FFE7DD"/>
<path d="M52.4082 13.9985L52.4227 13.9821C53.7955 15.4714 55.0127 17.1097 56.0481 18.8703C55.8923 18.9462 55.7297 19.0091 55.5617 19.0579C54.9214 19.2438 54.2388 19.2145 53.6164 18.9743C52.9939 18.734 52.4653 18.2959 52.1098 17.7256C51.7544 17.1554 51.5913 16.4838 51.6451 15.8117C51.6989 15.1397 51.9667 14.5034 52.4082 13.9985Z" fill="#FFE7DD"/>
<path d="M45.4935 20.6808C45.6926 20.7472 45.8904 20.8153 46.0867 20.8849C45.947 20.8525 45.8092 20.81 45.6741 20.7576C45.613 20.7339 45.5528 20.7083 45.4935 20.6808Z" fill="#FFE7DD"/>
<path d="M12.2019 31.9586C12.2867 31.466 12.9851 31.466 13.07 31.9586L13.7721 36.0348C14.0914 37.8882 15.5249 39.3395 17.3557 39.6627L21.3821 40.3735C21.8687 40.4594 21.8687 41.1665 21.3821 41.2523L17.3557 41.9632C15.5249 42.2864 14.0914 43.7377 13.7721 45.591L13.07 49.6673C12.9851 50.1599 12.2867 50.1599 12.2019 49.6673L11.4997 45.591C11.1804 43.7377 9.74687 42.2864 7.91616 41.9632L3.88967 41.2523C3.40314 41.1665 3.40314 40.4594 3.88968 40.3735L7.91616 39.6627C9.74687 39.3395 11.1804 37.8882 11.4997 36.0348L12.2019 31.9586Z" fill="#FFE7DD"/>
<path d="M4.49143 49.3543C4.57627 48.8617 5.27467 48.8617 5.35952 49.3543L5.653 51.058C5.84455 52.17 6.7047 53.0408 7.80312 53.2347L9.48605 53.5318C9.97258 53.6177 9.97258 54.3247 9.48604 54.4106L7.80312 54.7077C6.7047 54.9017 5.84455 55.7724 5.653 56.8844L5.35952 58.5882C5.27467 59.0807 4.57627 59.0807 4.49143 58.5882L4.19795 56.8844C4.0064 55.7724 3.14625 54.9017 2.04783 54.7077L0.364903 54.4106C-0.121636 54.3247 -0.121634 53.6177 0.364905 53.5318L2.04783 53.2347C3.14625 53.0408 4.0064 52.17 4.19795 51.058L4.49143 49.3543Z" fill="#FFE7DD"/>
<path d="M57.7907 15.6206V5.80139C57.7901 5.66731 57.7597 5.53509 57.7017 5.41455C57.6437 5.29401 57.5596 5.18825 57.4556 5.10512C57.3532 5.02123 57.2334 4.96165 57.1052 4.93075C56.977 4.89985 56.8436 4.89843 56.7148 4.92659L48.7777 6.7119C48.5817 6.75662 48.4067 6.86771 48.2816 7.02679C48.1566 7.18586 48.0889 7.38339 48.0898 7.5867V15.0314C47.4877 14.7438 46.8097 14.6614 46.1575 14.7968C45.5053 14.9321 44.9141 15.2779 44.4725 15.7822C44.0309 16.2865 43.7627 16.9222 43.7083 17.5938C43.6538 18.2654 43.8159 18.9368 44.1704 19.5072C44.5248 20.0777 45.0525 20.5164 45.6741 20.7576C46.2958 20.9988 46.978 21.0295 47.6183 20.845C48.2586 20.6606 48.8226 20.2709 49.2257 19.7345C49.6287 19.1982 49.849 18.544 49.8536 17.8701C49.8627 17.7155 49.8627 17.5605 49.8536 17.4059V8.30083L56.0269 6.91721V13.2461C55.4245 12.9583 54.7461 12.876 54.0936 13.0117C53.4411 13.1473 52.8497 13.4936 52.4082 13.9985C51.9667 14.5034 51.6989 15.1397 51.6451 15.8117C51.5913 16.4838 51.7544 17.1554 52.1098 17.7256C52.4653 18.2959 52.9939 18.734 53.6164 18.9743C54.2388 19.2145 54.9214 19.2438 55.5617 19.0579C56.2021 18.8719 56.7655 18.4807 57.1674 17.943C57.5693 17.4053 57.7881 16.7501 57.7907 16.0759C57.7991 15.9242 57.7991 15.7722 57.7907 15.6206Z" fill="#FFE7DD"/>
<path d="M94.6094 42.3125C92.4323 42.3125 90.6094 41.5469 89.1406 40.0156C87.6823 38.4844 86.9531 36.2917 86.9531 33.4375C86.9531 30.5729 87.7083 28.3802 89.2188 26.8594C90.7396 25.3281 92.7812 24.5625 95.3438 24.5625C96.6667 24.5625 98.1719 24.8281 99.8594 25.3594V20.5625C99.8594 20.2812 99.9479 20.0521 100.125 19.875C100.312 19.6875 100.542 19.5938 100.812 19.5938H104.297C104.578 19.5938 104.807 19.6875 104.984 19.875C105.172 20.0521 105.266 20.2812 105.266 20.5625V41.0469C105.266 41.3177 105.172 41.5469 104.984 41.7344C104.807 41.9115 104.578 42 104.297 42H101.297C101.016 42 100.786 41.9115 100.609 41.7344C100.432 41.5469 100.344 41.3177 100.344 41.0469V40.5625C98.6979 41.7292 96.7865 42.3125 94.6094 42.3125ZM96.4688 28.3438C95.0312 28.3438 94.0156 28.75 93.4219 29.5625C92.8281 30.3646 92.5312 31.6562 92.5312 33.4375C92.5312 35.2188 92.8125 36.5156 93.375 37.3281C93.9375 38.1406 94.7812 38.5469 95.9062 38.5469C97.0417 38.5469 98.3594 38.0781 99.8594 37.1406V28.9688C98.5156 28.5521 97.3854 28.3438 96.4688 28.3438ZM109.109 21.6094V21.0781C109.109 20.526 109.266 20.0885 109.578 19.7656C109.901 19.4427 110.344 19.2812 110.906 19.2812H112.844C113.396 19.2812 113.833 19.4427 114.156 19.7656C114.479 20.0781 114.641 20.5156 114.641 21.0781V21.6094C114.641 22.1615 114.479 22.599 114.156 22.9219C113.844 23.2448 113.406 23.4062 112.844 23.4062H110.906C110.354 23.4062 109.917 23.2448 109.594 22.9219C109.271 22.599 109.109 22.1615 109.109 21.6094ZM109.172 41.0469V26.2188C109.172 25.9375 109.26 25.7083 109.438 25.5312C109.625 25.3542 109.854 25.2656 110.125 25.2656H113.625C113.906 25.2656 114.135 25.3594 114.312 25.5469C114.49 25.724 114.578 25.9479 114.578 26.2188V41.0469C114.578 41.3281 114.484 41.5573 114.297 41.7344C114.12 41.9115 113.896 42 113.625 42H110.125C109.844 42 109.615 41.9115 109.438 41.7344C109.26 41.5573 109.172 41.3281 109.172 41.0469ZM117.516 29.6094C117.516 26.2448 120.229 24.5625 125.656 24.5625C131.365 24.5625 134.219 26.0573 134.219 29.0469C134.219 29.3177 134.13 29.5469 133.953 29.7344C133.776 29.9115 133.547 30 133.266 30H130.938C130.188 30 129.557 29.6875 129.047 29.0625C128.536 28.4271 127.531 28.1094 126.031 28.1094C123.969 28.1094 122.938 28.6094 122.938 29.6094C122.938 30.0781 123.339 30.4688 124.141 30.7812C124.953 31.0938 125.938 31.3698 127.094 31.6094C128.26 31.8385 129.422 32.1354 130.578 32.5C131.734 32.8646 132.714 33.4479 133.516 34.25C134.328 35.0417 134.734 36.0469 134.734 37.2656C134.734 40.6302 131.87 42.3125 126.141 42.3125C120.411 42.3125 117.547 40.8229 117.547 37.8438C117.547 37.5625 117.635 37.3333 117.812 37.1562C118 36.9688 118.234 36.875 118.516 36.875H120.844C121.594 36.875 122.224 37.1927 122.734 37.8281C123.245 38.4531 124.25 38.7656 125.75 38.7656C128.135 38.7656 129.328 38.2656 129.328 37.2656C129.328 36.7969 128.922 36.4062 128.109 36.0938C127.307 35.7812 126.323 35.5052 125.156 35.2656C123.99 35.0156 122.828 34.7135 121.672 34.3594C120.526 33.9948 119.547 33.4115 118.734 32.6094C117.922 31.8073 117.516 30.8073 117.516 29.6094ZM145.922 42.3125C143.005 42.3125 140.734 41.5625 139.109 40.0625C137.484 38.5625 136.672 36.3594 136.672 33.4531C136.672 30.5365 137.479 28.3281 139.094 26.8281C140.708 25.3177 142.953 24.5625 145.828 24.5625C148.714 24.5625 150.927 25.0208 152.469 25.9375C154.021 26.8542 154.797 28.2083 154.797 30C154.797 30.2812 154.703 30.5104 154.516 30.6875C154.339 30.8646 154.109 30.9531 153.828 30.9531H151.5C150.792 30.9531 150.193 30.5729 149.703 29.8125C149.089 28.8333 148 28.3438 146.438 28.3438C144.885 28.3438 143.797 28.7448 143.172 29.5469C142.557 30.3385 142.25 31.6354 142.25 33.4375C142.25 35.2396 142.568 36.5417 143.203 37.3438C143.849 38.1458 144.964 38.5469 146.547 38.5469C148.141 38.5469 149.245 38.0573 149.859 37.0781C150.349 36.3073 150.948 35.9219 151.656 35.9219H153.984C154.266 35.9219 154.495 36.0156 154.672 36.2031C154.859 36.3802 154.953 36.6042 154.953 36.875C154.953 38.6667 154.177 40.0208 152.625 40.9375C151.083 41.8542 148.849 42.3125 145.922 42.3125ZM158.984 40.0625C157.359 38.5625 156.547 36.3542 156.547 33.4375C156.547 30.5104 157.359 28.3021 158.984 26.8125C160.609 25.3125 162.943 24.5625 165.984 24.5625C169.036 24.5625 171.375 25.3125 173 26.8125C174.625 28.3021 175.438 30.5104 175.438 33.4375C175.438 36.3542 174.625 38.5625 173 40.0625C171.375 41.5625 169.036 42.3125 165.984 42.3125C162.943 42.3125 160.609 41.5625 158.984 40.0625ZM162.938 29.375C162.292 30.2188 161.969 31.5677 161.969 33.4219C161.969 35.276 162.292 36.6302 162.938 37.4844C163.583 38.3385 164.599 38.7656 165.984 38.7656C167.38 38.7656 168.401 38.3385 169.047 37.4844C169.703 36.6302 170.031 35.276 170.031 33.4219C170.031 31.5677 169.703 30.2188 169.047 29.375C168.401 28.5312 167.38 28.1094 165.984 28.1094C164.599 28.1094 163.583 28.5312 162.938 29.375ZM177.219 24.875H180.219C180.667 24.875 181.089 25.0052 181.484 25.2656C181.88 25.5156 182.161 25.8438 182.328 26.25L186.594 35.9844L190.844 26.25C191.01 25.8438 191.292 25.5156 191.688 25.2656C192.083 25.0052 192.505 24.875 192.953 24.875H195.969C196.333 24.875 196.573 25.0104 196.688 25.2812C196.74 25.3854 196.76 25.5208 196.75 25.6875C196.75 25.8438 196.703 26.0312 196.609 26.25L189.859 40.625C189.672 41.0312 189.375 41.3646 188.969 41.625C188.573 41.875 188.161 42 187.734 42H185.438C185.01 42 184.599 41.875 184.203 41.625C183.807 41.3646 183.516 41.0312 183.328 40.625L176.578 26.25C176.474 26.0208 176.422 25.8281 176.422 25.6719C176.422 25.1406 176.688 24.875 177.219 24.875ZM200.141 40.0312C198.536 38.5104 197.734 36.3229 197.734 33.4688C197.734 30.6042 198.542 28.4062 200.156 26.875C201.771 25.3333 204.01 24.5625 206.875 24.5625C209.74 24.5625 211.974 25.3125 213.578 26.8125C215.182 28.3021 215.984 30.4427 215.984 33.2344V34.125C215.984 34.4062 215.891 34.6406 215.703 34.8281C215.526 35.0052 215.297 35.0938 215.016 35.0938H203.25C203.354 36.375 203.719 37.3073 204.344 37.8906C204.979 38.474 205.99 38.7656 207.375 38.7656C208.76 38.7656 209.708 38.4531 210.219 37.8281C210.729 37.2031 211.359 36.8854 212.109 36.875H214.438C214.719 36.875 214.948 36.9688 215.125 37.1562C215.312 37.3333 215.406 37.5625 215.406 37.8438C215.406 40.8333 212.557 42.3229 206.859 42.3125C203.984 42.3125 201.745 41.5521 200.141 40.0312ZM203.219 31.7969H210.484C210.38 29.3385 209.172 28.1094 206.859 28.1094C204.557 28.1094 203.344 29.3385 203.219 31.7969ZM230.703 28.8438L228.297 28.75C226.891 28.75 225.547 29.5208 224.266 31.0625V41.0469C224.266 41.3281 224.172 41.5573 223.984 41.7344C223.807 41.9115 223.583 42 223.312 42H219.812C219.531 42 219.302 41.9115 219.125 41.7344C218.948 41.5573 218.859 41.3281 218.859 41.0469V25.8438C218.859 25.5625 218.948 25.3333 219.125 25.1562C219.312 24.9688 219.542 24.875 219.812 24.875H223.312C223.594 24.875 223.823 24.9688 224 25.1562C224.177 25.3333 224.266 25.5625 224.266 25.8438V26.8281C225.328 26.0573 226.349 25.4896 227.328 25.125C228.318 24.75 229.609 24.5625 231.203 24.5625C231.484 24.5625 231.714 24.6562 231.891 24.8438C232.078 25.0208 232.172 25.2448 232.172 25.5156V27.8906C232.172 28.1719 232.078 28.401 231.891 28.5781C231.714 28.7552 231.484 28.8438 231.203 28.8438H230.703ZM237.75 43.625L239.797 43.8906C241.266 43.8906 242.292 42.8125 242.875 40.6562C241.104 40.6562 239.625 40.125 238.438 39.0625C237.25 37.9896 236.229 36.0885 235.375 33.3594L233.047 25.8125C233.016 25.7292 233 25.6354 233 25.5312C233 25.4167 233.062 25.2812 233.188 25.125C233.323 24.9688 233.521 24.8854 233.781 24.875H237.047C237.349 24.875 237.635 24.9792 237.906 25.1875C238.188 25.3854 238.37 25.6354 238.453 25.9375L240.5 32.5625C241.01 34.1875 241.526 35.3125 242.047 35.9375C242.578 36.5625 243.203 36.875 243.922 36.875L247.031 25.9375C247.115 25.6354 247.276 25.3854 247.516 25.1875C247.766 24.9792 248.042 24.875 248.344 24.875H251.641C251.901 24.875 252.094 24.9583 252.219 25.125C252.344 25.2917 252.406 25.4323 252.406 25.5469C252.406 25.651 252.396 25.7396 252.375 25.8125L248.281 40.4062C247.552 42.9896 246.646 44.8333 245.562 45.9375C244.49 47.0417 243.104 47.5938 241.406 47.5938C239.708 47.5938 238.505 47.5312 237.797 47.4062C237.099 47.2812 236.661 47.125 236.484 46.9375C236.307 46.7604 236.219 46.5521 236.219 46.3125V44.5938C236.219 44.3125 236.307 44.0781 236.484 43.8906C236.661 43.7135 236.891 43.625 237.172 43.625H237.75Z" fill="#FFE7DD"/>
</svg>
