<svg width="1406" height="1061" viewBox="0 0 1406 1061" fill="none" xmlns="http://www.w3.org/2000/svg">
<g style="mix-blend-mode:hard-light" filter="url(#filter0_f_387_1690)">
<circle cx="659.186" cy="530.586" r="392.757" transform="rotate(-27.6556 659.186 530.586)" fill="url(#paint0_radial_387_1690)"/>
</g>
<g style="mix-blend-mode:hard-light" filter="url(#filter1_f_387_1690)">
<path fill-rule="evenodd" clip-rule="evenodd" d="M669.934 600.599C1053.68 731.407 1379.4 794.524 1397.45 741.574C1409.99 704.767 1270.57 621.565 1055.5 530.318V570.469C1145 614.682 1197.51 651.948 1190.95 671.184C1178.26 708.398 949.345 664.039 679.646 572.106C409.947 480.173 201.596 375.479 214.282 338.265C219.368 323.342 259.225 321.536 322.539 330.655L344.879 293.677C152.208 247.183 19.135 234.57 7.78234 267.875C-10.267 320.825 286.188 469.791 669.934 600.599Z" fill="url(#paint1_linear_387_1690)"/>
</g>
<defs>
<filter id="filter0_f_387_1690" x="256.349" y="127.749" width="805.673" height="805.673" filterUnits="userSpaceOnUse" color-interpolation-filters="sRGB">
<feFlood flood-opacity="0" result="BackgroundImageFix"/>
<feBlend mode="normal" in="SourceGraphic" in2="BackgroundImageFix" result="shape"/>
<feGaussianBlur stdDeviation="5" result="effect1_foregroundBlur_387_1690"/>
</filter>
<filter id="filter1_f_387_1690" x="0" y="242.138" width="1405.23" height="525.172" filterUnits="userSpaceOnUse" color-interpolation-filters="sRGB">
<feFlood flood-opacity="0" result="BackgroundImageFix"/>
<feBlend mode="normal" in="SourceGraphic" in2="BackgroundImageFix" result="shape"/>
<feGaussianBlur stdDeviation="3.5" result="effect1_foregroundBlur_387_1690"/>
</filter>
<radialGradient id="paint0_radial_387_1690" cx="0" cy="0" r="1" gradientUnits="userSpaceOnUse" gradientTransform="translate(506.057 351.741) rotate(50.507) scale(740.701)">
<stop offset="0.124" stop-color="#E79DC3"/>
<stop offset="0.289" stop-color="#9C5AA6"/>
<stop offset="0.569" stop-color="#666187"/>
<stop offset="1" stop-color="#383838"/>
</radialGradient>
<linearGradient id="paint1_linear_387_1690" x1="605.101" y1="738.5" x2="848.101" y2="303" gradientUnits="userSpaceOnUse">
<stop stop-color="#FFE7DD"/>
<stop offset="0.33" stop-color="#E79DC3"/>
<stop offset="0.695" stop-color="#896889" stop-opacity="0.727612"/>
<stop offset="1" stop-color="#3B3B58" stop-opacity="0.5"/>
</linearGradient>
</defs>
</svg>
